<svg width="145" height="43" viewBox="0 0 145 43" fill="none" xmlns="http://www.w3.org/2000/svg">
<path d="M139.069 0.129173C140.791 0.129173 142.513 0.129173 144.235 0.129173C144.953 0.129173 145.199 0.535339 144.83 1.14459C141.16 7.298 137.49 13.4514 133.831 19.6048C133.687 19.8587 133.513 19.9602 133.216 19.9602C130.438 19.9602 127.66 19.9704 124.892 20.011C124.421 20.0211 124.236 19.879 124.246 19.3814C124.287 17.7568 124.277 16.1423 124.308 14.5176C124.308 14.3044 124.38 14.0708 124.493 13.888C127.373 9.42022 130.264 4.96255 133.144 0.494722C133.329 0.210406 133.534 0.119019 133.862 0.119019C135.594 0.139327 137.337 0.129173 139.069 0.129173Z" fill="black"/>
<path d="M139.069 42.9899C137.326 42.9899 135.594 42.9797 133.851 43C133.534 43 133.318 42.9188 133.134 42.6345C130.264 38.1666 127.373 33.6988 124.493 29.231C124.38 29.0584 124.298 28.8147 124.298 28.6116C124.288 26.9361 124.298 25.2709 124.288 23.5954C124.288 23.2705 124.39 23.1487 124.728 23.1487C127.568 23.1588 130.418 23.1588 133.257 23.1791C133.441 23.1791 133.687 23.3314 133.78 23.4939C137.48 29.6676 141.17 35.8515 144.861 42.0354C145.168 42.5532 144.922 43 144.317 43C142.575 42.9899 140.822 42.9899 139.069 42.9899Z" fill="black"/>
<path d="M106.297 0.129173C108.02 0.129173 109.742 0.139327 111.464 0.119019C111.792 0.119019 111.997 0.22056 112.171 0.494722C115.072 4.89147 117.973 9.28821 120.874 13.6951C120.987 13.8576 121.058 14.081 121.058 14.2739C121.089 15.99 121.089 17.7162 121.12 19.4322C121.13 19.8688 120.976 20.0211 120.536 20.011C117.819 19.9805 115.113 19.9805 112.397 19.9501C112.212 19.9501 111.966 19.7978 111.874 19.6454C108.081 13.4514 104.299 7.25738 100.516 1.0532C100.239 0.596263 100.506 0.139327 101.039 0.139327C102.792 0.119019 104.545 0.119019 106.297 0.129173C106.297 0.119019 106.297 0.129173 106.297 0.129173Z" fill="black"/>
<path d="M106.318 42.9898C104.596 42.9898 102.874 42.9898 101.152 42.9898C100.865 42.9898 100.639 42.9695 100.475 42.6649C100.311 42.3704 100.434 42.1877 100.567 41.9643C103.653 37.0395 106.749 32.1148 109.824 27.1798C110.562 25.9918 111.228 24.753 111.905 23.5345C112.058 23.2603 112.222 23.1486 112.55 23.1486C115.226 23.1588 117.912 23.1588 120.587 23.1385C120.987 23.1385 121.079 23.2806 121.079 23.6462C121.069 25.3521 121.079 27.0478 121.069 28.7537C121.069 28.9974 120.987 29.2716 120.853 29.4645C117.963 33.8714 115.052 38.258 112.161 42.6548C111.997 42.8985 111.823 42.9898 111.536 42.9898C109.793 42.9898 108.05 42.9898 106.318 42.9898Z" fill="black"/>
<path d="M17.5575 23.1994C17.086 24.6007 16.6452 25.9512 16.1839 27.3017C14.4926 32.3382 12.8012 37.3645 11.1201 42.4111C10.9766 42.8477 10.7921 43 10.3103 43C7.14285 42.9797 3.9754 42.9899 0.807939 42.9899C0.110894 42.9899 -0.135122 42.6751 0.0698909 42.0151C2.01752 35.8616 3.9754 29.7184 5.92302 23.565C6.00503 23.3213 6.08703 23.1487 6.41506 23.1487C10.0335 23.1588 13.6623 23.1487 17.2808 23.1487C17.3525 23.1588 17.414 23.1791 17.5575 23.1994Z" fill="black"/>
<path d="M27.2239 23.1791C27.4494 23.1689 27.6134 23.1588 27.7672 23.1588C31.2114 23.1588 34.6556 23.1689 38.0998 23.1588C38.5304 23.1588 38.7149 23.2908 38.8379 23.697C40.765 29.8098 42.7126 35.9124 44.65 42.015C44.8653 42.6751 44.6295 42.9898 43.9325 42.9898C40.765 42.9898 37.5976 42.9898 34.4301 43C34.0816 43 33.9176 42.8984 33.8048 42.5634C31.6522 36.2272 29.479 29.891 27.3161 23.5649C27.2751 23.4533 27.2649 23.3517 27.2239 23.1791Z" fill="black"/>
<path d="M7.13257 19.9095C7.5836 18.5691 7.99362 17.2897 8.4344 16.0204C9.76699 12.2634 11.1098 8.51651 12.4424 4.76963C12.9652 3.28713 13.98 2.21079 15.3126 1.41876C16.84 0.515045 18.4493 -0.114512 20.2842 0.0174918C20.6327 0.0378001 20.766 0.108879 20.766 0.474428C20.7762 4.61732 20.807 8.77037 20.807 12.9133C20.807 13.3499 20.7045 13.8068 20.5712 14.2231C19.9972 15.99 19.3821 17.7568 18.7978 19.5135C18.7056 19.7775 18.6133 19.9501 18.275 19.9501C14.6873 19.9399 11.0996 19.9399 7.51184 19.9399C7.41959 19.9501 7.31708 19.9298 7.13257 19.9095Z" fill="black"/>
<path d="M37.6078 20.0009C36.6647 20.0009 35.7934 20.0009 34.9221 20.0009C32.1134 19.9907 29.3047 19.9704 26.496 19.9602C26.1885 19.9602 26.0348 19.8689 25.9322 19.5744C25.3377 17.8076 24.7124 16.0611 24.1281 14.2942C24.0051 13.9084 23.9846 13.4717 23.9846 13.0656C23.9949 8.89222 24.0256 4.71887 24.0359 0.535357C24.0359 0.179962 24.1281 0.0479576 24.5177 0.0276493C26.7318 -0.063738 28.6077 0.768902 30.299 2.05848C31.2011 2.74896 31.8674 3.65268 32.2569 4.71887C33.5075 8.13066 34.7376 11.5323 35.9574 14.9542C36.4699 16.386 36.921 17.8482 37.4027 19.2901C37.4642 19.4728 37.5155 19.6759 37.6078 20.0009Z" fill="black"/>
<path d="M75.8633 19.8993C72.9931 19.8993 70.1434 19.8993 67.2629 19.8993C67.2629 13.289 67.2629 6.70907 67.2629 0.088562C70.1229 0.088562 72.9726 0.088562 75.8633 0.088562C75.8633 6.66845 75.8633 13.2686 75.8633 19.8993Z" fill="black"/>
<path d="M75.9043 23.2096C75.9043 29.5864 75.9043 35.9022 75.9043 42.2587C74.9613 42.3603 74.0387 42.2587 73.1264 42.0455C69.9999 41.3347 67.9293 39.1211 67.4373 35.9327C67.3143 35.1407 67.2528 34.3385 67.2528 33.5363C67.2323 30.2768 67.2528 27.0072 67.2528 23.7477C67.2528 23.5751 67.2528 23.4025 67.2528 23.1994C70.1435 23.2096 72.9931 23.2096 75.9043 23.2096Z" fill="black"/>
<path d="M79.9329 42.2791C79.6766 42.2791 79.4716 42.2791 79.2358 42.2791C79.2358 39.5578 79.2358 36.8466 79.2358 34.0948C79.4614 34.0948 79.6766 34.0948 79.9329 34.0948C79.9329 36.8161 79.9329 39.5273 79.9329 42.2791Z" fill="black"/>
</svg>
