<svg width="38" height="38" viewBox="0 0 38 38" fill="none" xmlns="http://www.w3.org/2000/svg">
<path d="M18.9604 34.8334H19C25.11 34.8334 30.0833 29.8617 30.0833 23.7501V14.2501C30.0833 8.1685 25.1322 3.20791 19.03 3.16675H18.935C12.855 3.20158 7.91663 8.16533 7.91663 14.2501V23.7501C7.91663 29.8617 12.8709 34.8334 18.9604 34.8334ZM11.0833 14.2501C11.0862 12.1555 11.918 10.1471 13.3969 8.66375C14.8758 7.1804 16.8816 6.34262 18.9762 6.33342C23.3541 6.34292 26.9166 9.89433 26.9166 14.2501V23.7501C26.9166 28.1153 23.3652 31.6668 19 31.6668H18.9604C14.5445 31.6668 11.0833 28.1898 11.0833 23.7501V14.2501Z" fill="#3A393C"/>
<path d="M17.4166 11.0833C17.4166 10.2089 18.1255 9.5 19 9.5C19.8744 9.5 20.5833 10.2089 20.5833 11.0833V17.4167C20.5833 18.2911 19.8744 19 19 19C18.1255 19 17.4166 18.2911 17.4166 17.4167V11.0833Z" fill="#3A393C"/>
</svg>
