<svg width="185" height="180" viewBox="0 0 185 180" fill="none" xmlns="http://www.w3.org/2000/svg">
<g clip-path="url(#clip0)">
<path d="M185 91.7738C184.892 106.215 172.89 117.826 158.257 117.611C143.264 117.396 131.839 105.606 132.127 90.5554C132.379 76.3288 144.057 65.0408 158.545 65.0408C173.503 65.0408 185.108 76.7589 185 91.7738ZM170.655 91.3796C170.655 84.8218 164.997 79.1957 158.437 79.2673C151.878 79.339 146.219 85.1085 146.363 91.5588C146.508 97.7224 152.094 103.241 158.329 103.384C164.781 103.599 170.655 97.8299 170.655 91.3796Z" fill="black"/>
<path d="M52.8005 26.303C52.7645 41.1029 41.1952 52.6418 26.4183 52.6418C11.7134 52.606 0 40.9596 0 26.303C0 11.5748 11.6053 0 26.3822 0C41.2312 0 52.8365 11.5389 52.8005 26.303ZM26.3462 38.3795C32.9057 38.4511 38.5642 32.825 38.5281 26.2313C38.4921 19.8885 33.158 14.4774 26.8147 14.3341C20.111 14.1549 14.3805 19.5302 14.2363 26.088C14.0921 32.61 19.7146 38.3078 26.3462 38.3795Z" fill="black"/>
<path d="M182.441 50.0976C177.323 50.0976 172.674 50.0976 167.484 50.0976C167.484 34.2584 167.484 18.5626 167.484 2.47266C172.386 2.47266 177.179 2.47266 182.441 2.47266C182.441 18.2043 182.441 33.7568 182.441 50.0976Z" fill="black"/>
<path d="M84.1563 115.138C78.4978 115.138 73.8485 115.138 68.6946 115.138C68.6946 99.4067 68.6946 83.8901 68.6946 67.2267C72.8393 67.2267 77.2003 67.0117 81.4893 67.4059C82.4624 67.4776 84.0122 69.6277 84.0122 70.8461C84.2284 85.3593 84.1563 99.9084 84.1563 115.138Z" fill="black"/>
<path d="M50.2774 67.5134C50.2774 72.6379 50.2774 77.5473 50.2774 82.7434C34.3472 82.7434 18.8855 82.7434 2.81104 82.7434C2.81104 77.7264 2.81104 72.817 2.81104 67.5134C18.5611 67.5134 34.167 67.5134 50.2774 67.5134Z" fill="black"/>
<path d="M182.081 147.641C166.547 147.641 150.905 147.641 134.831 147.641C134.831 142.588 134.831 137.822 134.831 132.124C143.553 132.124 152.167 132.124 160.817 132.124C164.024 132.124 167.196 132.124 170.404 132.124C184.532 132.124 184.892 132.59 182.081 147.641Z" fill="black"/>
<path d="M50.2779 179.964C45.1601 179.964 40.3666 179.964 35.2126 179.964C35.2126 164.053 35.2126 148.501 35.2126 132.554C40.1863 132.554 44.9798 132.554 50.2779 132.554C50.2779 148.393 50.2779 164.125 50.2779 179.964Z" fill="black"/>
<path d="M101.312 114.816C101.312 98.8332 101.312 83.3882 101.312 67.5491C106.466 67.5491 111.223 67.5491 116.341 67.5491C116.341 83.4957 116.341 99.084 116.341 114.816C111.043 114.816 106.105 114.816 101.312 114.816Z" fill="black"/>
<path d="M149.716 49.9899C144.418 49.9899 139.768 49.9899 134.759 49.9899C134.759 34.0791 134.759 18.4908 134.759 2.5083C139.768 2.5083 144.562 2.5083 149.716 2.5083C149.716 18.3474 149.716 33.9357 149.716 49.9899Z" fill="black"/>
<path d="M50.2058 115.103C34.2755 115.103 18.8138 115.103 2.77539 115.103C2.77539 110.193 2.77539 105.463 2.77539 100.267C18.3813 100.267 34.0232 100.267 50.2058 100.267C50.2058 104.89 50.2058 109.62 50.2058 115.103Z" fill="black"/>
<path d="M17.588 180C12.2899 180 7.67664 180 2.63086 180C2.63086 164.089 2.63086 148.537 2.63086 132.554C7.67664 132.554 12.4701 132.554 17.588 132.554C17.588 148.429 17.588 163.982 17.588 180Z" fill="black"/>
<path d="M134.686 179.856C134.686 174.875 134.686 170.324 134.686 165.271C150.544 165.271 166.186 165.271 182.369 165.271C182.369 169.93 182.369 174.624 182.369 179.856C166.727 179.856 151.121 179.856 134.686 179.856Z" fill="black"/>
</g>
<defs>
<clipPath id="clip0">
<rect width="185" height="180" fill="white"/>
</clipPath>
</defs>
</svg>
