<svg width="30" height="50" viewBox="0 0 30 50" fill="none" xmlns="http://www.w3.org/2000/svg">
<path d="M1.33234 1.31546C0.909996 1.72973 0.574921 2.22181 0.3463 2.76352C0.117679 3.30524 0 3.88595 0 4.47242C0 5.0589 0.117679 5.63961 0.3463 6.18132C0.574921 6.72304 0.909996 7.21512 1.33234 7.62939L19.0092 25.0039L1.33234 42.3784C0.480494 43.2157 0.00192911 44.3513 0.00192911 45.5354C0.00192911 46.7195 0.480494 47.8551 1.33234 48.6923C2.18419 49.5296 3.33955 50 4.54424 50C5.74894 50 6.90429 49.5296 7.75614 48.6923L28.6677 28.1385C29.09 27.7242 29.4251 27.2321 29.6537 26.6904C29.8823 26.1487 30 25.568 30 24.9815C30 24.395 29.8823 23.8143 29.6537 23.2726C29.4251 22.7309 29.09 22.2388 28.6677 21.8245L7.75614 1.27068C6.0249 -0.43095 3.10914 -0.430949 1.33234 1.31546Z" fill="#3A393C"/>
</svg>
