<svg width="145" height="43" viewBox="0 0 145 43" fill="none" xmlns="http://www.w3.org/2000/svg">
<path d="M139.069 0.129173C140.791 0.129173 142.513 0.129173 144.235 0.129173C144.953 0.129173 145.199 0.535339 144.83 1.14459C141.16 7.298 137.49 13.4514 133.831 19.6048C133.687 19.8587 133.513 19.9602 133.216 19.9602C130.438 19.9602 127.66 19.9704 124.892 20.011C124.421 20.0211 124.236 19.879 124.246 19.3814C124.287 17.7568 124.277 16.1423 124.308 14.5176C124.308 14.3044 124.38 14.0708 124.493 13.888C127.373 9.42022 130.264 4.96255 133.144 0.494722C133.329 0.210406 133.534 0.119019 133.862 0.119019C135.594 0.139327 137.337 0.129173 139.069 0.129173Z" fill="white"/>
<path d="M139.069 42.9898C137.326 42.9898 135.594 42.9797 133.851 43C133.534 43 133.318 42.9187 133.134 42.6344C130.264 38.1666 127.373 33.6988 124.492 29.231C124.38 29.0583 124.298 28.8146 124.298 28.6116C124.287 26.9361 124.298 25.2708 124.287 23.5954C124.287 23.2705 124.39 23.1486 124.728 23.1486C127.568 23.1588 130.417 23.1588 133.257 23.1791C133.441 23.1791 133.687 23.3314 133.78 23.4939C137.48 29.6676 141.17 35.8515 144.861 42.0353C145.168 42.5532 144.922 43 144.317 43C142.575 42.9898 140.822 42.9898 139.069 42.9898Z" fill="white"/>
<path d="M106.298 0.129173C108.02 0.129173 109.742 0.139327 111.464 0.119019C111.792 0.119019 111.997 0.22056 112.171 0.494722C115.072 4.89147 117.973 9.28821 120.874 13.6951C120.987 13.8576 121.059 14.081 121.059 14.2739C121.089 15.99 121.089 17.7162 121.12 19.4322C121.13 19.8688 120.977 20.0211 120.536 20.011C117.819 19.9805 115.113 19.9805 112.397 19.9501C112.212 19.9501 111.966 19.7978 111.874 19.6454C108.081 13.4514 104.299 7.25738 100.516 1.0532C100.239 0.596263 100.506 0.139327 101.039 0.139327C102.792 0.119019 104.545 0.119019 106.298 0.129173C106.298 0.119019 106.298 0.129173 106.298 0.129173Z" fill="white"/>
<path d="M106.318 42.9898C104.596 42.9898 102.874 42.9898 101.152 42.9898C100.865 42.9898 100.639 42.9695 100.475 42.6649C100.311 42.3704 100.434 42.1877 100.567 41.9643C103.653 37.0395 106.749 32.1148 109.824 27.1798C110.562 25.9918 111.228 24.753 111.905 23.5345C112.058 23.2603 112.222 23.1486 112.55 23.1486C115.226 23.1588 117.912 23.1588 120.587 23.1385C120.987 23.1385 121.079 23.2806 121.079 23.6462C121.069 25.3521 121.079 27.0478 121.069 28.7537C121.069 28.9974 120.987 29.2716 120.854 29.4645C117.963 33.8714 115.052 38.258 112.161 42.6548C111.997 42.8985 111.823 42.9898 111.536 42.9898C109.793 42.9898 108.05 42.9898 106.318 42.9898Z" fill="white"/>
<path d="M17.5575 23.1994C17.086 24.6007 16.6452 25.9512 16.1839 27.3017C14.4926 32.3381 12.8012 37.3644 11.1201 42.411C10.9766 42.8477 10.7921 43 10.3103 43C7.14285 42.9797 3.9754 42.9898 0.807939 42.9898C0.110894 42.9898 -0.135122 42.675 0.0698909 42.015C2.01752 35.8616 3.9754 29.7184 5.92302 23.5649C6.00503 23.3212 6.08703 23.1486 6.41506 23.1486C10.0335 23.1588 13.6623 23.1486 17.2808 23.1486C17.3525 23.1588 17.414 23.1791 17.5575 23.1994Z" fill="white"/>
<path d="M27.2239 23.1791C27.4495 23.169 27.6135 23.1588 27.7672 23.1588C31.2114 23.1588 34.6557 23.169 38.0999 23.1588C38.5304 23.1588 38.7149 23.2908 38.8379 23.697C40.7651 29.8098 42.7127 35.9124 44.6501 42.0151C44.8653 42.6751 44.6296 42.9899 43.9325 42.9899C40.7651 42.9899 37.5976 42.9899 34.4302 43C34.0816 43 33.9176 42.8985 33.8049 42.5634C31.6522 36.2272 29.4791 29.891 27.3162 23.565C27.2752 23.4533 27.2649 23.3517 27.2239 23.1791Z" fill="white"/>
<path d="M7.13263 19.9095C7.58366 18.5691 7.99369 17.2897 8.43446 16.0204C9.76705 12.2634 11.1099 8.51651 12.4425 4.76963C12.9653 3.28713 13.9801 2.21079 15.3127 1.41876C16.84 0.515045 18.4494 -0.114512 20.2842 0.0174918C20.6328 0.0378001 20.766 0.108879 20.766 0.474428C20.7763 4.61732 20.807 8.77037 20.807 12.9133C20.807 13.3499 20.7045 13.8068 20.5713 14.2231C19.9972 15.99 19.3822 17.7568 18.7979 19.5135C18.7056 19.7775 18.6134 19.9501 18.2751 19.9501C14.6874 19.9399 11.0996 19.9399 7.5119 19.9399C7.41965 19.9501 7.31714 19.9298 7.13263 19.9095Z" fill="white"/>
<path d="M37.6078 20.0009C36.6648 20.0009 35.7935 20.0009 34.9221 20.0009C32.1135 19.9907 29.3048 19.9704 26.4961 19.9602C26.1886 19.9602 26.0348 19.8689 25.9323 19.5744C25.3378 17.8076 24.7125 16.0611 24.1282 14.2942C24.0052 13.9084 23.9847 13.4717 23.9847 13.0656C23.9949 8.89222 24.0257 4.71887 24.0359 0.535357C24.0359 0.179962 24.1282 0.0479576 24.5177 0.0276493C26.7319 -0.063738 28.6077 0.768902 30.2991 2.05848C31.2012 2.74896 31.8674 3.65268 32.257 4.71887C33.5076 8.13066 34.7376 11.5323 35.9575 14.9542C36.47 16.386 36.921 17.8482 37.4028 19.2901C37.4643 19.4728 37.5156 19.6759 37.6078 20.0009Z" fill="white"/>
<path d="M75.8633 19.8993C72.9931 19.8993 70.1434 19.8993 67.263 19.8993C67.263 13.289 67.263 6.70907 67.263 0.088562C70.1229 0.088562 72.9726 0.088562 75.8633 0.088562C75.8633 6.66845 75.8633 13.2686 75.8633 19.8993Z" fill="white"/>
<path d="M75.9043 23.2096C75.9043 29.5864 75.9043 35.9022 75.9043 42.2587C74.9613 42.3603 74.0387 42.2587 73.1264 42.0455C69.9999 41.3347 67.9293 39.1211 67.4373 35.9327C67.3143 35.1407 67.2528 34.3385 67.2528 33.5363C67.2323 30.2768 67.2528 27.0072 67.2528 23.7477C67.2528 23.5751 67.2528 23.4025 67.2528 23.1994C70.1435 23.2096 72.9931 23.2096 75.9043 23.2096Z" fill="white"/>
<path d="M79.9329 42.279C79.6766 42.279 79.4716 42.279 79.2358 42.279C79.2358 39.5577 79.2358 36.8466 79.2358 34.0948C79.4614 34.0948 79.6766 34.0948 79.9329 34.0948C79.9329 36.8161 79.9329 39.5273 79.9329 42.279Z" fill="white"/>
</svg>
